<svg width="128" height="36" viewBox="0 0 128 36" fill="none" xmlns="http://www.w3.org/2000/svg">
<g clip-path="url(#clip0_12385_104546)">
<path d="M20.8711 8.76314H16.1356L9.80391 24.1944H13.8586L18.4882 12.2774L23.1254 24.1944H27.1726L20.8711 8.76314Z" fill="#FFB500"/>
<path d="M16.7937 35.5407H16.7483C14.3654 35.3079 12.0733 34.5795 9.99303 33.4756C6.00641 31.3055 2.85191 27.6411 1.4827 22.9629C0.0907849 18.2997 0.756482 13.5089 2.94269 9.57413C4.05471 7.53165 5.58279 5.69942 7.42102 4.23514L7.46641 4.21261C10.2124 1.9749 13.5787 0.488093 17.2249 0.0225274C17.2476 0.0225274 17.3535 0 17.3762 0L18.9194 3.72452C18.874 3.72452 18.7681 3.74705 18.7454 3.74705C15.485 3.94229 12.4818 5.15125 10.0611 7.08861C10.0157 7.13366 9.9779 7.15619 9.93251 7.19373C9.86443 7.23879 9.8266 7.27633 9.75852 7.34392H9.73583C9.71313 7.36644 9.71313 7.36644 9.69044 7.38897C8.32122 8.51534 7.17895 9.882 6.34682 11.4139C4.62963 14.5001 4.11523 18.2472 5.21211 21.8891C6.28631 25.5535 8.75241 28.3995 11.8615 30.1041C13.5106 30.9976 15.3337 31.5533 17.2401 31.7185C21.378 32.0564 25.2814 30.7423 28.2846 28.3094C28.4359 28.1817 28.5645 28.0541 28.7158 27.9489L30.2363 31.6735C26.5296 34.4969 21.794 35.9837 16.7937 35.5407Z" fill="#FFB500"/>
<path d="M55.6538 6.64452H52.6733V23.9305H55.6538V6.64452ZM59.7917 10.1137C60.8659 10.1137 61.6602 9.32528 61.6602 8.24396C61.6602 7.17767 60.8659 6.38921 59.7917 6.38921C58.6948 6.38921 57.8627 7.17767 57.8627 8.24396C57.8627 9.33279 58.6797 10.1137 59.7917 10.1137ZM61.2517 11.5855H58.2485V23.9305H61.2517V11.5855ZM70.1932 8.83718C70.7303 8.83718 71.396 8.98737 72.1903 9.32528L73.1359 7.00496C72.0239 6.44929 70.9043 6.17145 69.7923 6.17145C66.8345 6.17145 64.8374 7.89854 64.8374 10.9998V11.578H62.863V14.0861H64.8374V23.923H67.8179V14.0861H71.6986V11.578H67.8179V11.0899C67.8103 9.62564 68.65 8.83718 70.1932 8.83718Z" fill="white"/>
<path d="M47.3326 17.758C47.3326 18.8243 46.9922 19.6954 46.3038 20.4388C45.6154 21.1596 44.5487 21.5276 43.4746 21.5276C42.4004 21.5276 41.5228 21.1672 40.8345 20.4388C40.1688 19.7179 39.8283 18.8243 39.8283 17.758C39.8283 16.6917 40.1688 15.7981 40.8345 15.0998C41.5228 14.3564 42.4004 13.9959 43.4746 13.9959C44.5487 13.9959 45.6154 14.3564 46.3038 15.0998C46.9922 15.8207 47.3326 16.6917 47.3326 17.758ZM47.2645 12.7344C46.1525 11.7732 44.7984 11.2852 43.2098 11.2852C41.4548 11.2852 39.7603 11.9009 38.6029 13.1174C37.4228 14.3113 36.8478 15.8657 36.8478 17.6904C36.8478 19.5452 37.4303 21.1146 38.6029 22.3536C39.7603 23.6076 41.4321 24.2234 43.2098 24.2234C44.8362 24.2234 46.039 23.7578 47.2645 22.7741V23.923H50.0937V11.5855H47.2645V12.7344Z" fill="white"/>
<path d="M81.0864 24.2083C82.3498 24.2083 83.4013 23.8479 84.2182 23.142C85.0125 22.4362 85.421 21.5651 85.421 20.5439C85.421 19.2223 84.7326 18.2011 83.3407 17.4802C83.0003 17.2849 82.4405 17.0522 81.7294 16.7593L80.3375 16.121C79.6718 15.7981 79.3314 15.2875 79.3314 14.6342C79.3314 13.8007 79.9744 13.1024 81.1545 13.1024C82.2514 13.1024 83.1062 13.5679 83.7265 14.5291L85.0958 13.3126C84.3695 12.0586 82.8415 11.3753 81.2756 11.3753C80.1182 11.3753 79.1499 11.6982 78.4463 12.3139C77.7201 12.9522 77.3722 13.7632 77.3722 14.7393C77.3722 15.9934 77.9925 16.9771 79.218 17.6379C79.4978 17.8106 79.9896 18.0434 80.7385 18.3437C81.5101 18.6666 81.9791 18.8994 82.2363 19.0271C83.0079 19.4776 83.3937 20.0032 83.3937 20.664C83.3937 21.6027 82.5162 22.4287 81.1621 22.4287C80.0274 22.4287 78.8927 21.7679 78.1816 20.4688L76.6157 21.5351C77.5461 23.3148 79.2633 24.2083 81.0864 24.2083ZM89.5363 23.9305V17.1423C89.5363 16.0384 89.8615 15.1223 90.4818 14.4165C91.1249 13.6956 91.9645 13.3276 92.9933 13.3276C94.877 13.3276 96.1705 14.6868 96.1705 17.1348V23.923H98.2055V16.5566C98.2055 14.897 97.7516 13.643 96.8135 12.7645C95.8679 11.8709 94.7332 11.4428 93.3791 11.4428C91.7073 11.4428 90.2246 12.1487 89.4757 13.2525V6.71961H87.5013V23.9155H89.5363V23.9305ZM100.059 17.8406C100.059 19.6278 100.656 21.1596 101.882 22.3986C103.085 23.6151 104.628 24.2309 106.474 24.2309C108.342 24.2309 109.863 23.6151 111.081 22.3986C112.283 21.1672 112.881 19.6278 112.881 17.8406C112.881 16.076 112.261 14.5591 111.058 13.3276C109.832 12.0961 108.335 11.4729 106.466 11.4729C104.62 11.4729 103.077 12.0886 101.874 13.3276C100.664 14.5666 100.059 16.076 100.059 17.8406ZM110.823 17.8406C110.823 19.0946 110.415 20.1609 109.56 21.0545C108.72 21.9256 107.692 22.3536 106.474 22.3536C105.271 22.3536 104.242 21.9256 103.387 21.0545C102.548 20.1609 102.124 19.0946 102.124 17.8406C102.124 16.6091 102.555 15.5654 103.387 14.6868C104.242 13.7932 105.271 13.3276 106.474 13.3276C107.699 13.3276 108.728 13.7932 109.56 14.6868C110.423 15.5654 110.823 16.6091 110.823 17.8406ZM121.248 11.4804C119.402 11.4804 117.927 12.2013 116.784 13.628V11.7808H114.75V28.9391H116.784V22.1433C117.896 23.525 119.356 24.2309 121.18 24.2309C122.957 24.2309 124.417 23.6151 125.575 22.3986C126.755 21.1446 127.352 19.6278 127.352 17.8631C127.352 16.0985 126.755 14.5817 125.575 13.3276C124.425 12.0961 122.988 11.4804 121.248 11.4804ZM121.013 22.3536C119.704 22.3536 118.653 21.9481 117.881 21.077C117.087 20.1835 116.701 19.1172 116.701 17.8406C116.701 16.5866 117.087 15.5203 117.881 14.6492C118.676 13.7782 119.704 13.3276 121.013 13.3276C122.299 13.3276 123.328 13.7782 124.122 14.6492C124.917 15.5203 125.325 16.5866 125.325 17.8406C125.325 19.1172 124.939 20.1835 124.122 21.077C123.328 21.9331 122.299 22.3536 121.013 22.3536Z" fill="white"/>
</g>
<defs>
<clipPath id="clip0_12385_104546">
<rect width="128" height="36" fill="white"/>
</clipPath>
</defs>
</svg>
