<svg width="134" height="36" viewBox="0 0 134 36" fill="none" xmlns="http://www.w3.org/2000/svg">
<path d="M90.8599 6.84058H92.9929V13.4955C93.7608 12.3863 95.2112 11.6185 96.9176 11.6185C99.4772 11.6185 101.781 13.3249 101.781 16.823V24.3311H99.5625V17.4202C99.5625 14.8606 98.1974 13.6662 96.4057 13.6662C94.358 13.6662 92.9929 15.2019 92.9929 17.4202V24.3311H90.7746V6.84058H90.8599Z" fill="black"/>
<path d="M104.341 18.1882C104.341 14.6047 107.071 11.7039 110.91 11.7039C114.75 11.7039 117.394 14.6901 117.394 18.1882C117.394 21.8569 114.664 24.7578 110.91 24.7578C107.071 24.7578 104.341 21.7716 104.341 18.1882ZM115.261 18.1882C115.261 15.7139 113.384 13.6662 110.91 13.6662C108.436 13.6662 106.559 15.7139 106.559 18.1882C106.559 20.6624 108.436 22.7954 110.91 22.7954C113.299 22.7101 115.261 20.6624 115.261 18.1882Z" fill="black"/>
<path d="M132.752 18.1881C132.752 21.7716 130.107 24.6724 126.524 24.6724C124.647 24.6724 123.196 23.9046 122.087 22.5394V29.4503H119.869V11.8745H122.087V13.7515C123.196 12.3864 124.732 11.5332 126.524 11.5332C130.107 11.7038 132.752 14.6047 132.752 18.1881ZM130.534 18.1881C130.534 15.7139 128.827 13.7515 126.268 13.7515C123.708 13.7515 122.002 15.7992 122.002 18.1881C122.002 20.6624 123.623 22.7101 126.268 22.7101C128.827 22.7101 130.534 20.6624 130.534 18.1881Z" fill="black"/>
<path d="M83.5225 24.9283C84.8876 24.9283 86.0821 24.587 87.0206 23.8191C87.8738 23.0512 88.3857 22.198 88.3857 21.0889C88.3857 19.7238 87.6178 18.6146 86.0821 17.8467C85.7408 17.6761 85.0582 17.4201 84.2903 17.0789L82.7546 16.3963C81.9867 16.055 81.5601 15.5431 81.5601 14.8605C81.5601 14.0073 82.328 13.2395 83.6931 13.2395C84.8876 13.2395 85.9114 13.7514 86.594 14.7752L88.1297 13.4954C87.2765 12.1303 85.5701 11.4478 83.8637 11.4478C82.584 11.4478 81.4748 11.789 80.7069 12.4716C79.939 13.1542 79.5124 14.0074 79.5124 15.0312C79.5124 16.3963 80.195 17.4201 81.5601 18.1027C81.9014 18.2733 82.4133 18.5293 83.2665 18.8706C84.1197 19.2119 84.6316 19.4678 84.8876 19.5531C85.7408 19.9797 86.2527 20.4916 86.2527 21.2595C86.2527 22.198 85.2289 23.0512 83.6931 23.0512C82.4133 23.0512 81.1335 22.3687 80.3656 21.0036L78.6592 22.1127C79.5978 23.9898 81.4748 24.9283 83.5225 24.9283Z" fill="black"/>
<path d="M70.631 9.07271C71.2211 9.07271 71.885 9.22025 72.6226 9.58906L73.5815 7.22866C72.4751 6.63856 71.3687 6.34351 70.1885 6.34351C67.238 6.34351 65.1726 8.11381 65.1726 11.2856V11.8757H63.1811V14.3836H65.1726V24.4152H68.1969V14.3836H72.1063V11.8757H68.1969V11.3593C68.1969 9.81034 69.082 9.07271 70.631 9.07271Z" fill="black"/>
<path d="M61.4108 11.8019H58.3865V24.3415H61.4108V11.8019Z" fill="black"/>
<path d="M59.9355 10.3267C61.0419 10.3267 61.8533 9.51534 61.8533 8.40891C61.8533 7.30248 61.0419 6.49109 59.9355 6.49109C58.8291 6.49109 58.0177 7.30248 58.0177 8.40891C58.0177 9.51534 58.8291 10.3267 59.9355 10.3267Z" fill="black"/>
<path d="M55.2886 6.78613H52.2643V24.3415H55.2886V6.78613Z" fill="black"/>
<path d="M46.5109 11.7282V13.0559C45.3307 12.097 44.0767 11.5806 42.454 11.5806C38.6921 11.5806 35.8892 14.3098 35.8892 18.1454C35.8892 21.9073 38.5446 24.7103 42.454 24.7103C44.003 24.7103 45.3307 24.194 46.5109 23.1613V24.4152H49.3876V11.8019H46.5109V11.7282ZM42.6752 22.0549C40.2411 22.0549 38.6921 20.2846 38.6921 18.0717C38.6921 15.8588 40.2411 14.0885 42.6752 14.0885C45.0356 14.0885 46.5847 15.8588 46.5847 18.0717C46.6584 20.2846 45.0356 22.0549 42.6752 22.0549Z" fill="black"/>
<path d="M20.0301 9.51532H15.3094L8.96582 24.7841H13.0227L17.6698 12.9821L22.243 24.7841H26.2999L20.0301 9.51532Z" fill="#FFC845"/>
<path d="M28.0702 28.6197C26.89 29.5048 25.5623 30.1687 24.0871 30.7588C16.4158 33.783 7.8594 30.6113 4.90891 23.4563C1.95843 16.2276 5.64653 7.74502 13.3178 4.72077C14.8668 4.13067 16.4158 3.76186 17.9648 3.61434L16.4896 0C14.793 0.147524 13.0965 0.590083 11.4737 1.25394C2.03219 5.01581 -2.46729 15.7113 1.36834 24.9316C5.13021 34.1518 15.752 38.3563 25.1935 34.6682C26.7425 34.0781 28.2915 33.2667 29.5454 32.3816L28.0702 28.6197Z" fill="#FFC845"/>
</svg>
